<mxfile host="app.diagrams.net" modified="2022-06-03T07:52:23.296Z" agent="5.0 (Windows)" etag="H6QYMcENM8tfkmQd0Rf_" version="18.2.1" type="github">
  <diagram id="LZ4A8MPS5GCSkCpehHRz" name="Page-1">
    <mxGraphModel dx="2062" dy="1112" grid="1" gridSize="10" guides="1" tooltips="1" connect="1" arrows="1" fold="1" page="1" pageScale="1" pageWidth="827" pageHeight="1169" math="0" shadow="0">
      <root>
        <mxCell id="0" />
        <mxCell id="1" parent="0" />
        <mxCell id="dwyne1s_71ijkqdNtx_F-1" value="Product" style="ellipse;whiteSpace=wrap;html=1;" vertex="1" parent="1">
          <mxGeometry x="320" y="380" width="120" height="80" as="geometry" />
        </mxCell>
        <mxCell id="dwyne1s_71ijkqdNtx_F-2" value="" style="endArrow=none;html=1;rounded=0;" edge="1" parent="1">
          <mxGeometry width="50" height="50" relative="1" as="geometry">
            <mxPoint x="430" y="400" as="sourcePoint" />
            <mxPoint x="499.4565222889614" y="349.48616560802816" as="targetPoint" />
          </mxGeometry>
        </mxCell>
        <mxCell id="dwyne1s_71ijkqdNtx_F-5" value="" style="endArrow=none;html=1;rounded=0;exitX=1;exitY=0.5;exitDx=0;exitDy=0;" edge="1" parent="1" source="dwyne1s_71ijkqdNtx_F-1">
          <mxGeometry width="50" height="50" relative="1" as="geometry">
            <mxPoint x="470" y="460" as="sourcePoint" />
            <mxPoint x="531.1651594585446" y="432.1553545944728" as="targetPoint" />
            <Array as="points" />
          </mxGeometry>
        </mxCell>
        <mxCell id="dwyne1s_71ijkqdNtx_F-7" value="get all" style="rounded=0;whiteSpace=wrap;html=1;" vertex="1" parent="1">
          <mxGeometry x="500" y="300" width="120" height="60" as="geometry" />
        </mxCell>
        <mxCell id="dwyne1s_71ijkqdNtx_F-8" value="get one" style="rounded=0;whiteSpace=wrap;html=1;" vertex="1" parent="1">
          <mxGeometry x="530" y="400" width="120" height="60" as="geometry" />
        </mxCell>
        <mxCell id="dwyne1s_71ijkqdNtx_F-9" value="create" style="rounded=0;whiteSpace=wrap;html=1;" vertex="1" parent="1">
          <mxGeometry x="140" y="300" width="120" height="60" as="geometry" />
        </mxCell>
        <mxCell id="dwyne1s_71ijkqdNtx_F-10" value="" style="endArrow=none;html=1;rounded=0;entryX=0;entryY=0;entryDx=0;entryDy=0;exitX=1;exitY=1;exitDx=0;exitDy=0;" edge="1" parent="1" source="dwyne1s_71ijkqdNtx_F-9" target="dwyne1s_71ijkqdNtx_F-1">
          <mxGeometry width="50" height="50" relative="1" as="geometry">
            <mxPoint x="270" y="380" as="sourcePoint" />
            <mxPoint x="320" y="330" as="targetPoint" />
          </mxGeometry>
        </mxCell>
        <mxCell id="dwyne1s_71ijkqdNtx_F-11" value="Components" style="ellipse;whiteSpace=wrap;html=1;" vertex="1" parent="1">
          <mxGeometry x="320" y="580" width="120" height="80" as="geometry" />
        </mxCell>
        <mxCell id="dwyne1s_71ijkqdNtx_F-15" value="" style="endArrow=none;html=1;rounded=0;exitX=0.5;exitY=0;exitDx=0;exitDy=0;entryX=0.5;entryY=1;entryDx=0;entryDy=0;" edge="1" parent="1" source="dwyne1s_71ijkqdNtx_F-11" target="dwyne1s_71ijkqdNtx_F-1">
          <mxGeometry width="50" height="50" relative="1" as="geometry">
            <mxPoint x="390" y="590" as="sourcePoint" />
            <mxPoint x="440" y="540" as="targetPoint" />
          </mxGeometry>
        </mxCell>
        <mxCell id="dwyne1s_71ijkqdNtx_F-19" value="" style="edgeStyle=orthogonalEdgeStyle;rounded=0;orthogonalLoop=1;jettySize=auto;html=1;" edge="1" parent="1" source="dwyne1s_71ijkqdNtx_F-16" target="dwyne1s_71ijkqdNtx_F-11">
          <mxGeometry relative="1" as="geometry" />
        </mxCell>
        <mxCell id="dwyne1s_71ijkqdNtx_F-16" value="get all" style="rounded=0;whiteSpace=wrap;html=1;" vertex="1" parent="1">
          <mxGeometry x="510" y="600" width="120" height="60" as="geometry" />
        </mxCell>
        <mxCell id="dwyne1s_71ijkqdNtx_F-18" value="" style="edgeStyle=orthogonalEdgeStyle;rounded=0;orthogonalLoop=1;jettySize=auto;html=1;" edge="1" parent="1" source="dwyne1s_71ijkqdNtx_F-17" target="dwyne1s_71ijkqdNtx_F-11">
          <mxGeometry relative="1" as="geometry" />
        </mxCell>
        <mxCell id="dwyne1s_71ijkqdNtx_F-17" value="get one" style="rounded=0;whiteSpace=wrap;html=1;" vertex="1" parent="1">
          <mxGeometry x="400" y="730" width="120" height="60" as="geometry" />
        </mxCell>
        <mxCell id="dwyne1s_71ijkqdNtx_F-21" value="" style="edgeStyle=orthogonalEdgeStyle;rounded=0;orthogonalLoop=1;jettySize=auto;html=1;" edge="1" parent="1" source="dwyne1s_71ijkqdNtx_F-20" target="dwyne1s_71ijkqdNtx_F-1">
          <mxGeometry relative="1" as="geometry" />
        </mxCell>
        <mxCell id="dwyne1s_71ijkqdNtx_F-20" value="delete" style="shape=tape;whiteSpace=wrap;html=1;" vertex="1" parent="1">
          <mxGeometry x="110" y="420" width="120" height="100" as="geometry" />
        </mxCell>
        <mxCell id="dwyne1s_71ijkqdNtx_F-24" value="&lt;div&gt;user&lt;/div&gt;&lt;div&gt;(shopping cart)&lt;br&gt;&lt;/div&gt;" style="ellipse;whiteSpace=wrap;html=1;" vertex="1" parent="1">
          <mxGeometry x="320" y="180" width="120" height="80" as="geometry" />
        </mxCell>
        <mxCell id="dwyne1s_71ijkqdNtx_F-26" value="" style="endArrow=none;html=1;rounded=0;exitX=0.5;exitY=0;exitDx=0;exitDy=0;entryX=0.5;entryY=1;entryDx=0;entryDy=0;" edge="1" parent="1" source="dwyne1s_71ijkqdNtx_F-1" target="dwyne1s_71ijkqdNtx_F-24">
          <mxGeometry width="50" height="50" relative="1" as="geometry">
            <mxPoint x="350" y="330" as="sourcePoint" />
            <mxPoint x="400" y="280" as="targetPoint" />
          </mxGeometry>
        </mxCell>
        <mxCell id="dwyne1s_71ijkqdNtx_F-29" value="get all" style="rounded=0;whiteSpace=wrap;html=1;" vertex="1" parent="1">
          <mxGeometry x="490" y="60" width="120" height="60" as="geometry" />
        </mxCell>
        <mxCell id="dwyne1s_71ijkqdNtx_F-30" value="" style="endArrow=none;html=1;rounded=0;entryX=0;entryY=1;entryDx=0;entryDy=0;" edge="1" parent="1" target="dwyne1s_71ijkqdNtx_F-29">
          <mxGeometry width="50" height="50" relative="1" as="geometry">
            <mxPoint x="414" y="190" as="sourcePoint" />
            <mxPoint x="464" y="140" as="targetPoint" />
          </mxGeometry>
        </mxCell>
      </root>
    </mxGraphModel>
  </diagram>
</mxfile>
